# xmcd
#
# Track frame offsets: 
#        150
#        10633
#        21683
#        33388
#        43728
#        55310
#        65955
#        77174
#        89974
#        101458
#        114613
#        125082
#
# Disc length: 1858 seconds
#
# Revision: 2
# Processed by: cddbd v1.5.2PL0 Copyright (c) Steve Scherf et al.
# Submitted via: ExactAudioCopy v0.95b4
#
DISCID=af07400c
DTITLE=Patsy Cline - Her Original Four Star Hits Vol. 3
DYEAR=1900
DGENRE=Country
TTITLE0=Too Many Secrets
TTITLE1=Honky Tonk Merry Go Round
TTITLE2=In Care Of The Blues
TTITLE3=Three Cigarettes In An Ashtray
TTITLE4=Lonely Street
TTITLE5=Lovesick Blues
TTITLE6=I Can't Forget
TTITLE7=Just A Closer Walk With Thee
TTITLE8=That Wonderful Someone
TTITLE9=Life's Railway To Heaven
TTITLE10=He Will Do For You
TTITLE11=Then You'll Know
EXTD=ID3G:   2
EXTT0=
EXTT1=
EXTT2=
EXTT3=
EXTT4=
EXTT5=
EXTT6=
EXTT7=
EXTT8=
EXTT9=
EXTT10=
EXTT11=
PLAYORDER=
